<?xml version="1.0" encoding="UTF-8" standalone="no"?>
<!DOCTYPE svg PUBLIC "-//W3C//DTD SVG 1.1//EN" "http://www.w3.org/Graphics/SVG/1.1/DTD/svg11.dtd">
<svg width="100%" height="100%" viewBox="0 0 330 98" version="1.1" xmlns="http://www.w3.org/2000/svg" xmlns:xlink="http://www.w3.org/1999/xlink" xml:space="preserve" xmlns:serif="http://www.serif.com/" style="fill-rule:evenodd;clip-rule:evenodd;stroke-linejoin:round;stroke-miterlimit:2;">
    <g transform="matrix(1,0,0,1,-212.975,-176.064)">
        <g>
            <g transform="matrix(124,0,0,124,203.055,272.288)">
                <path d="M0.08,0L0.08,-0.693L0.548,-0.693L0.548,-0.562L0.236,-0.562L0.236,-0.426L0.513,-0.426L0.513,-0.298L0.236,-0.298L0.236,-0.131L0.571,-0.131L0.571,0L0.08,0Z" style="fill:white;fill-rule:nonzero;"/>
            </g>
            <g transform="matrix(124,0,0,124,276.711,272.288)">
                <path d="M0.197,-0.267C0.197,-0.221 0.207,-0.184 0.228,-0.156C0.249,-0.128 0.279,-0.114 0.32,-0.114C0.333,-0.114 0.346,-0.115 0.357,-0.116C0.368,-0.117 0.378,-0.118 0.385,-0.119L0.385,-0.39C0.376,-0.396 0.364,-0.401 0.349,-0.405C0.334,-0.409 0.318,-0.411 0.303,-0.411C0.232,-0.411 0.197,-0.363 0.197,-0.267ZM0.534,-0.017C0.521,-0.013 0.505,-0.009 0.488,-0.006C0.471,-0.002 0.452,0.001 0.434,0.004C0.415,0.007 0.395,0.009 0.376,0.011C0.356,0.012 0.337,0.013 0.319,0.013C0.276,0.013 0.237,0.007 0.203,-0.006C0.169,-0.019 0.14,-0.037 0.117,-0.061C0.094,-0.084 0.076,-0.113 0.064,-0.147C0.051,-0.18 0.045,-0.218 0.045,-0.26C0.045,-0.303 0.05,-0.341 0.061,-0.376C0.072,-0.41 0.087,-0.439 0.107,-0.463C0.127,-0.487 0.152,-0.505 0.181,-0.518C0.21,-0.531 0.243,-0.537 0.28,-0.537C0.301,-0.537 0.319,-0.535 0.336,-0.531C0.352,-0.527 0.368,-0.521 0.385,-0.514L0.385,-0.752L0.534,-0.776L0.534,-0.017Z" style="fill:white;fill-rule:nonzero;"/>
            </g>
            <g transform="matrix(124,0,0,124,351.607,272.288)">
                <path d="M0.219,0L0.07,0L0.07,-0.526L0.219,-0.526L0.219,0ZM0.233,-0.678C0.233,-0.651 0.224,-0.629 0.207,-0.614C0.189,-0.598 0.168,-0.59 0.144,-0.59C0.12,-0.59 0.099,-0.598 0.082,-0.614C0.064,-0.629 0.055,-0.651 0.055,-0.678C0.055,-0.705 0.064,-0.727 0.082,-0.743C0.099,-0.758 0.12,-0.766 0.144,-0.766C0.168,-0.766 0.189,-0.758 0.207,-0.743C0.224,-0.727 0.233,-0.705 0.233,-0.678Z" style="fill:white;fill-rule:nonzero;"/>
            </g>
            <g transform="matrix(124,0,0,124,387.443,272.288)">
                <path d="M0.065,-0.657L0.214,-0.681L0.214,-0.526L0.393,-0.526L0.393,-0.402L0.214,-0.402L0.214,-0.217C0.214,-0.186 0.22,-0.161 0.231,-0.142C0.242,-0.123 0.264,-0.114 0.297,-0.114C0.313,-0.114 0.33,-0.116 0.347,-0.119C0.364,-0.122 0.379,-0.126 0.393,-0.131L0.414,-0.015C0.396,-0.008 0.376,-0.001 0.354,0.004C0.332,0.009 0.305,0.012 0.273,0.012C0.232,0.012 0.199,0.007 0.172,-0.005C0.145,-0.016 0.124,-0.031 0.108,-0.051C0.092,-0.07 0.081,-0.094 0.075,-0.122C0.068,-0.15 0.065,-0.181 0.065,-0.215L0.065,-0.657Z" style="fill:white;fill-rule:nonzero;"/>
            </g>
            <g transform="matrix(124,0,0,124,442.499,272.288)">
                <path d="M0.07,0L0.07,-0.752L0.219,-0.776L0.219,-0.524C0.229,-0.527 0.242,-0.531 0.258,-0.534C0.273,-0.537 0.288,-0.538 0.303,-0.538C0.346,-0.538 0.381,-0.532 0.41,-0.521C0.438,-0.509 0.46,-0.492 0.478,-0.471C0.495,-0.45 0.506,-0.424 0.514,-0.395C0.521,-0.366 0.524,-0.333 0.524,-0.297L0.524,0L0.375,0L0.375,-0.279C0.375,-0.327 0.369,-0.361 0.357,-0.381C0.344,-0.401 0.321,-0.411 0.288,-0.411C0.275,-0.411 0.262,-0.41 0.251,-0.408C0.239,-0.405 0.228,-0.403 0.219,-0.4L0.219,0L0.07,0Z" style="fill:white;fill-rule:nonzero;"/>
            </g>
            <g transform="matrix(124,0,0,124,515.535,272.288)">
                <path d="M0.216,-0.079C0.216,-0.049 0.206,-0.026 0.188,-0.011C0.169,0.005 0.147,0.013 0.123,0.013C0.099,0.013 0.078,0.005 0.059,-0.011C0.04,-0.026 0.03,-0.049 0.03,-0.079C0.03,-0.109 0.04,-0.132 0.059,-0.148C0.078,-0.163 0.099,-0.171 0.123,-0.171C0.147,-0.171 0.169,-0.163 0.188,-0.148C0.206,-0.132 0.216,-0.109 0.216,-0.079Z" style="fill:white;fill-rule:nonzero;"/>
            </g>
        </g>
    </g>
</svg>
